<svg width="167" height="175" viewBox="0 0 167 175" fill="none" xmlns="http://www.w3.org/2000/svg">
<path d="M82.0782 159.715L78.8344 167.817L73.9762 165.872L74.3247 165.002L78.2017 166.554L79.2978 163.816L75.7847 162.41L76.1331 161.54L79.6462 162.946L81.097 159.322L82.0782 159.715Z" fill="#EF8375"/>
<path d="M64.0629 160.353L63.1579 159.807L66.1421 154.859C66.4502 154.348 66.8457 153.965 67.3287 153.709C67.8077 153.453 68.3346 153.342 68.9095 153.373C69.4829 153.407 70.0627 153.601 70.649 153.954C71.2353 154.308 71.6772 154.73 71.9748 155.222C72.2709 155.715 72.419 156.234 72.4192 156.778C72.4156 157.324 72.2597 157.852 71.9516 158.363L68.9674 163.311L68.0624 162.765L71.0026 157.89C71.2227 157.525 71.3382 157.152 71.3493 156.77C71.359 156.391 71.2645 156.031 71.066 155.689C70.8636 155.348 70.5544 155.052 70.1384 154.801C69.7224 154.55 69.3164 154.415 68.9203 154.395C68.5228 154.377 68.1599 154.462 67.8315 154.649C67.4993 154.837 67.2232 155.113 67.0031 155.478L64.0629 160.353Z" fill="#EF8375"/>
<path d="M64.9711 150.149L59.3586 156.833L58.5494 156.153L63.5589 150.188L60.4525 147.578L61.0554 146.86L64.9711 150.149Z" fill="#EF8375"/>
<path d="M58.5437 144.241L52.0307 150.051L51.3273 149.262L57.1406 144.077L54.4404 141.049L55.14 140.425L58.5437 144.241Z" fill="#EF8375"/>
<path d="M41.5666 130.653C41.2049 130.895 41.0001 131.232 40.9522 131.664C40.9044 132.096 41.0002 132.548 41.2397 133.019C41.4149 133.363 41.6238 133.636 41.8666 133.838C42.1081 134.037 42.363 134.159 42.6314 134.204C42.8985 134.247 43.1561 134.205 43.4042 134.079C43.6119 133.973 43.7653 133.833 43.8645 133.658C43.9598 133.482 44.0169 133.291 44.0359 133.084C44.0522 132.878 44.0483 132.672 44.024 132.468C43.9972 132.265 43.9661 132.082 43.9307 131.918L43.7416 131.02C43.6918 130.79 43.6506 130.527 43.6181 130.231C43.5843 129.933 43.5905 129.629 43.6366 129.318C43.679 129.007 43.7875 128.713 43.9622 128.436C44.1369 128.159 44.4066 127.928 44.7712 127.742C45.1915 127.528 45.6274 127.445 46.0787 127.493C46.5288 127.538 46.9607 127.72 47.3745 128.039C47.7871 128.355 48.1453 128.812 48.4492 129.409C48.7325 129.966 48.8879 130.494 48.9155 130.994C48.9417 131.49 48.8533 131.937 48.6502 132.333C48.4458 132.727 48.1386 133.048 47.7287 133.294L47.2342 132.322C47.515 132.147 47.7079 131.925 47.8128 131.655C47.9138 131.384 47.9436 131.091 47.9021 130.778C47.8567 130.463 47.7555 130.151 47.5984 129.842C47.4155 129.482 47.1931 129.189 46.9311 128.962C46.6666 128.737 46.3867 128.594 46.0916 128.534C45.7939 128.475 45.5032 128.517 45.2196 128.661C44.9613 128.793 44.7879 128.972 44.6992 129.199C44.6105 129.425 44.5755 129.682 44.5939 129.969C44.6124 130.256 44.6532 130.556 44.7163 130.868L44.9296 131.964C45.064 132.661 45.0592 133.269 44.9154 133.788C44.7716 134.308 44.4376 134.701 43.9134 134.967C43.4779 135.189 43.0382 135.264 42.5943 135.194C42.1466 135.122 41.7311 134.932 41.3479 134.623C40.9608 134.313 40.641 133.91 40.3886 133.414C40.1337 132.912 39.9969 132.421 39.9784 131.939C39.9573 131.459 40.0433 131.027 40.2363 130.642C40.4281 130.254 40.7169 129.954 41.103 129.742L41.5666 130.653Z" fill="#EF8375"/>
<path d="M38.3951 126.192L37.5036 126.482L35.4785 120.258L36.37 119.968L37.219 122.577L44.6264 120.167L44.9533 121.171L37.546 123.582L38.3951 126.192Z" fill="#EF8375"/>
<path d="M43.066 113.883L43.2345 114.978L34.1215 113.139L33.9556 112.061L42.094 107.565L42.2624 108.66L35.398 112.356L35.4084 112.423L43.066 113.883ZM39.6344 113.997L38.9553 109.583L39.8818 109.441L40.561 113.855L39.6344 113.997Z" fill="#EF8375"/>
<path d="M36.1231 96.9971L36.107 98.0538C35.8021 98.1117 35.5334 98.217 35.301 98.3697C35.0685 98.5196 34.8725 98.7042 34.7129 98.9234C34.5505 99.1397 34.4275 99.3808 34.3439 99.6466C34.2603 99.9124 34.2163 100.19 34.2119 100.48C34.2039 101.008 34.3301 101.489 34.5906 101.922C34.8511 102.352 35.2394 102.697 35.7553 102.958C36.2714 103.216 36.9072 103.351 37.6628 103.362C38.4184 103.373 39.058 103.258 39.5816 103.016C40.1053 102.771 40.5039 102.437 40.7774 102.015C41.0509 101.591 41.1917 101.114 41.1998 100.586C41.2042 100.296 41.1686 100.017 41.0932 99.7487C41.0177 99.4804 40.9035 99.2358 40.7506 99.0147C40.5949 98.7907 40.4032 98.6003 40.1754 98.4434C39.9449 98.2837 39.6795 98.1703 39.3794 98.1032L39.3954 97.0465C39.8402 97.1328 40.2371 97.2837 40.5861 97.4993C40.9352 97.7148 41.2309 97.9806 41.4733 98.2968C41.7128 98.613 41.8935 98.9666 42.0154 99.3577C42.1374 99.746 42.195 100.16 42.1883 100.601C42.1769 101.345 41.9851 102.004 41.6127 102.578C41.2402 103.152 40.7163 103.6 40.0409 103.922C39.3655 104.244 38.5676 104.398 37.6472 104.385C36.7269 104.371 35.934 104.192 35.2687 103.85C34.6034 103.507 34.0933 103.044 33.7386 102.459C33.3838 101.874 33.2121 101.209 33.2234 100.465C33.2301 100.025 33.3003 99.6124 33.434 99.228C33.5678 98.8407 33.7606 98.4928 34.0125 98.184C34.2615 97.8753 34.5637 97.6184 34.9192 97.4136C35.2718 97.2086 35.6731 97.0698 36.1231 96.9971Z" fill="#EF8375"/>
<path d="M42.6357 93.9198L34.0448 92.383L34.231 91.3427L38.4929 92.1051L38.5109 92.0045L34.9397 87.3829L35.1829 86.0238L38.4132 90.3247L43.7738 87.5606L43.5486 88.8191L39.0206 91.0913L40.0365 92.3813L42.8219 92.8795L42.6357 93.9198Z" fill="#EF8375"/>
<path d="M48.1225 76.131L46.9586 78.5597L39.0883 74.7884L40.3037 72.2521C40.6696 71.4886 41.1402 70.9108 41.7156 70.5187C42.2885 70.1254 42.9376 69.9245 43.663 69.9161C44.3859 69.9065 45.1547 70.0969 45.9694 70.4873C46.7892 70.8802 47.4251 71.3644 47.8769 71.9401C48.3262 72.5145 48.5759 73.157 48.6259 73.8678C48.6734 74.5773 48.5056 75.3317 48.1225 76.131ZM46.5699 77.2015L47.2476 75.7874C47.5595 75.1366 47.6924 74.5372 47.6463 73.989C47.6003 73.4409 47.3957 72.9507 47.0327 72.5184C46.6697 72.0861 46.1679 71.7165 45.5274 71.4096C44.892 71.1052 44.2953 70.9468 43.7373 70.9346C43.1767 70.9211 42.6746 71.0617 42.231 71.3563C41.7848 71.6497 41.4144 72.1038 41.1197 72.7187L40.3904 74.2405L46.5699 77.2015Z" fill="#EF8375"/>
<path d="M51.7852 69.5637L44.6257 64.573L47.6377 60.2522L48.4068 60.7883L45.9992 64.2422L48.4183 65.9285L50.67 62.6983L51.4391 63.2344L49.1874 66.4646L51.6205 68.1606L54.0671 64.6508L54.8362 65.1869L51.7852 69.5637Z" fill="#EF8375"/>
<path d="M51.4951 55.7223L58.57 58.9815L58.6412 58.9081L55.1756 51.9308L55.9473 51.1358L59.976 59.5153L59.2162 60.298L50.7233 56.5173L51.4951 55.7223Z" fill="#EF8375"/>
<path d="M64.9451 55.0653L59.7456 48.0559L63.9757 44.9178L64.5342 45.6707L61.1529 48.1792L62.9097 50.5476L66.072 48.2016L66.6306 48.9546L63.4683 51.3006L65.2353 53.6827L68.6714 51.1335L69.2299 51.8865L64.9451 55.0653Z" fill="#EF8375"/>
<path d="M72.8099 49.7705L68.7156 42.0633L69.6489 41.5674L73.3034 48.4467L76.8859 46.5432L77.3257 47.3711L72.8099 49.7705Z" fill="#EF8375"/>
<path d="M86.192 39.5123C86.4872 40.3842 86.5848 41.1909 86.485 41.9326C86.3852 42.6742 86.1191 43.3102 85.6867 43.8406C85.2544 44.3709 84.6858 44.7554 83.9808 44.9941C83.2758 45.2329 82.5905 45.273 81.925 45.1144C81.2595 44.9559 80.6618 44.6124 80.132 44.0839C79.6022 43.5555 79.1897 42.8553 78.8945 41.9835C78.5994 41.1116 78.5017 40.3049 78.6016 39.5632C78.7014 38.8216 78.9675 38.1856 79.3998 37.6552C79.8322 37.1249 80.4008 36.7404 81.1058 36.5017C81.8108 36.2629 82.4961 36.2228 83.1616 36.3814C83.8271 36.5399 84.4248 36.8834 84.9546 37.4119C85.4844 37.9403 85.8969 38.6405 86.192 39.5123ZM85.2233 39.8403C84.981 39.1246 84.6568 38.561 84.2506 38.1497C83.8471 37.7374 83.3994 37.4736 82.9074 37.3583C82.4182 37.242 81.9233 37.2686 81.4228 37.4381C80.9223 37.6076 80.5117 37.8876 80.1911 38.2781C79.8731 38.6678 79.6777 39.1493 79.6049 39.7229C79.5348 40.2955 79.6209 40.9397 79.8632 41.6555C80.1056 42.3712 80.4285 42.9353 80.832 43.3475C81.2381 43.7588 81.6859 44.0226 82.1751 44.1389C82.6671 44.2543 83.1633 44.2272 83.6638 44.0577C84.1643 43.8882 84.5735 43.6087 84.8915 43.219C85.2122 42.8285 85.4076 42.3469 85.4776 41.7743C85.5504 41.2008 85.4657 40.5561 85.2233 39.8403Z" fill="#EF8375"/>
<path d="M91.149 42.9816L89.7713 34.3638L92.6831 33.8979C93.3592 33.7898 93.9313 33.8234 94.3995 33.9988C94.8701 34.1709 95.2422 34.4466 95.5157 34.8258C95.7892 35.2049 95.9665 35.6484 96.0477 36.1562C96.1289 36.6639 96.0989 37.142 95.9577 37.5904C95.8193 38.0383 95.5552 38.4201 95.1655 38.7356C94.7753 39.0483 94.245 39.2583 93.5745 39.3656L91.4874 39.6994L91.3394 38.7737L93.3928 38.4452C93.8557 38.3711 94.2146 38.2317 94.4696 38.027C94.7245 37.8222 94.8934 37.5736 94.9761 37.2813C95.0612 36.9858 95.0762 36.6655 95.021 36.3204C94.9658 35.9754 94.852 35.6771 94.6794 35.4256C94.5097 35.1737 94.2708 34.9933 93.9628 34.8843C93.6544 34.7725 93.2659 34.7541 92.7975 34.8291L90.9628 35.1226L92.1926 42.8147L91.149 42.9816Z" fill="#EF8375"/>
<path d="M100.546 41.9027L100.523 33.1755L105.79 33.161L105.793 34.0985L101.582 34.1101L101.59 37.0589L105.528 37.0481L105.53 37.9856L101.593 37.9964L101.601 40.9623L105.879 40.9506L105.881 41.8881L100.546 41.9027Z" fill="#EF8375"/>
<path d="M109.997 42.296L111.329 33.671L114.243 34.1209C114.917 34.2249 115.452 34.4254 115.849 34.7223C116.247 35.0165 116.518 35.379 116.664 35.8097C116.811 36.2405 116.844 36.7099 116.766 37.2181C116.688 37.7263 116.514 38.1609 116.246 38.5219C115.977 38.8829 115.611 39.1425 115.146 39.3008C114.683 39.4563 114.117 39.4825 113.448 39.3793L111.09 39.0152L111.236 38.0719L113.56 38.4308C114.021 38.5018 114.402 38.4917 114.703 38.4002C115.008 38.3093 115.242 38.15 115.407 37.9224C115.575 37.6925 115.685 37.4048 115.738 37.0595C115.792 36.7142 115.774 36.4024 115.685 36.1241C115.595 35.8459 115.42 35.6147 115.158 35.4305C114.896 35.2436 114.533 35.1141 114.067 35.0422L112.23 34.7587L111.041 42.4572L109.997 42.296ZM114.655 39.0482L116.179 43.2504L114.966 43.0631L113.476 38.8661L114.655 39.0482Z" fill="#EF8375"/>
<path d="M132.486 42.2199C132.614 41.8044 132.56 41.4139 132.325 41.0484C132.089 40.683 131.729 40.3932 131.246 40.1792C130.893 40.0227 130.558 39.943 130.243 39.9399C129.93 39.938 129.655 40.0042 129.418 40.1386C129.184 40.2742 129.011 40.4692 128.898 40.7238C128.804 40.9368 128.773 41.1423 128.807 41.3404C128.844 41.5371 128.921 41.7218 129.037 41.8944C129.154 42.0645 129.287 42.2211 129.434 42.3642C129.583 42.5048 129.723 42.6274 129.854 42.7319L130.568 43.3091C130.752 43.4557 130.949 43.6334 131.161 43.8423C131.376 44.0523 131.563 44.2922 131.723 44.562C131.887 44.8304 131.989 45.127 132.028 45.4521C132.067 45.7771 132.004 46.1266 131.839 46.5007C131.648 46.9318 131.362 47.2714 130.982 47.5193C130.604 47.7684 130.154 47.9001 129.632 47.9143C129.113 47.9296 128.547 47.8015 127.934 47.53C127.362 47.2768 126.908 46.9654 126.572 46.5958C126.238 46.2272 126.024 45.8251 125.932 45.3894C125.841 44.9548 125.877 44.5124 126.039 44.0623L127.037 44.5041C126.929 44.8169 126.92 45.1111 127.009 45.3868C127.102 45.661 127.264 45.9065 127.494 46.1235C127.728 46.3389 128.003 46.5169 128.32 46.6572C128.689 46.8206 129.047 46.9076 129.393 46.9181C129.741 46.9261 130.048 46.8602 130.315 46.7206C130.583 46.5783 130.782 46.3618 130.91 46.0708C131.028 45.8059 131.049 45.5575 130.975 45.3257C130.9 45.0939 130.765 44.8725 130.57 44.6616C130.374 44.4507 130.154 44.2442 129.908 44.042L129.05 43.3265C128.506 42.8712 128.126 42.3967 127.91 41.9031C127.693 41.4096 127.704 40.894 127.942 40.3563C128.14 39.9096 128.434 39.5735 128.823 39.348C129.215 39.1211 129.657 39.0063 130.15 39.0037C130.645 38.9996 131.148 39.1104 131.657 39.3359C132.171 39.5637 132.588 39.8584 132.906 40.22C133.225 40.5791 133.432 40.9688 133.525 41.3892C133.621 41.8108 133.586 42.2258 133.421 42.6341L132.486 42.2199Z" fill="#EF8375"/>
<path d="M142.467 50.8594C141.958 51.6268 141.381 52.1983 140.733 52.5738C140.086 52.9492 139.42 53.1286 138.736 53.1118C138.052 53.095 137.4 52.8811 136.779 52.4702C136.159 52.0592 135.707 51.5422 135.425 50.919C135.143 50.2958 135.048 49.613 135.141 48.8705C135.234 48.128 135.535 47.373 136.043 46.6056C136.551 45.8381 137.129 45.2667 137.776 44.8912C138.423 44.5157 139.089 44.3364 139.773 44.3532C140.457 44.37 141.109 44.5838 141.73 44.9948C142.35 45.4057 142.802 45.9228 143.084 46.5459C143.367 47.1691 143.461 47.8519 143.368 48.5945C143.275 49.337 142.975 50.0919 142.467 50.8594ZM141.614 50.2947C142.031 49.6647 142.278 49.0631 142.354 48.49C142.433 47.9186 142.367 47.4031 142.157 46.9436C141.949 46.4856 141.625 46.1108 141.184 45.8191C140.743 45.5273 140.271 45.3743 139.765 45.3602C139.263 45.3475 138.762 45.4881 138.265 45.782C137.769 46.0774 137.313 46.5402 136.895 47.1702C136.478 47.8003 136.23 48.4011 136.152 48.9725C136.075 49.5456 136.141 50.0611 136.349 50.519C136.559 50.9785 136.885 51.3541 137.325 51.6459C137.766 51.9376 138.238 52.0898 138.74 52.1024C139.245 52.1166 139.746 51.976 140.241 51.6806C140.739 51.3867 141.197 50.9248 141.614 50.2947Z" fill="#EF8375"/>
<path d="M151.082 58.7996C150.444 59.4638 149.774 59.9227 149.07 60.1763C148.366 60.4299 147.679 60.4872 147.009 60.3484C146.339 60.2095 145.735 59.8823 145.198 59.367C144.661 58.8516 144.31 58.2621 144.143 57.5985C143.977 56.9348 144.006 56.246 144.23 55.5321C144.455 54.8182 144.885 54.1292 145.523 53.4651C146.16 52.8009 146.831 52.3421 147.535 52.0884C148.239 51.8348 148.926 51.7775 149.596 51.9164C150.266 52.0553 150.869 52.3824 151.406 52.8977C151.943 53.4131 152.295 54.0026 152.461 54.6662C152.628 55.3299 152.599 56.0187 152.374 56.7326C152.15 57.4465 151.719 58.1355 151.082 58.7996ZM150.344 58.0915C150.867 57.5463 151.217 56.9985 151.395 56.4484C151.574 55.9001 151.602 55.3812 151.477 54.8915C151.355 54.4037 151.103 53.9769 150.722 53.6111C150.34 53.2452 149.902 53.0101 149.408 52.9058C148.916 52.8034 148.398 52.8522 147.856 53.0523C147.316 53.2543 146.784 53.628 146.261 54.1732C145.737 54.7185 145.386 55.2652 145.206 55.8134C145.029 56.3636 145.001 56.8825 145.124 57.3703C145.249 57.86 145.502 58.2878 145.883 58.6536C146.264 59.0195 146.701 59.2536 147.193 59.356C147.688 59.4603 148.205 59.4115 148.745 59.2095C149.288 59.0094 149.821 58.6368 150.344 58.0915Z" fill="#EF8375"/>
<path d="M161.413 65.2368L154.341 70.3514L153.742 69.5226L156.508 61.6533L156.458 61.5843L150.905 65.6L150.286 64.7436L157.358 59.6291L157.957 60.4578L155.188 68.3509L155.238 68.42L160.804 64.3943L161.413 65.2368Z" fill="#EF8375"/>
</svg>
